<svg width="44" height="44" viewBox="0 0 44 44" fill="none" xmlns="http://www.w3.org/2000/svg">
<path d="M40.6484 16.9572C39.8612 15.7609 39.985 14.3343 39.9334 12.949C40.1534 12.2959 40.2084 11.6359 39.8578 11.0309C39.1462 9.81747 23.9215 1.47466 21.9725 1.05185C21.285 0.904037 19.8653 0.395287 18.9028 1.51247C14.4684 6.65497 3.62999 23.0175 3.24155 25.4719C3.02499 26.8469 3.34811 28.8612 4.91217 29.9887C4.98436 30.0403 11.495 34.5331 14.9153 36.8912C16.995 38.3247 19.1056 39.734 21.2334 41.0987C22.2715 41.7622 25.2484 44.0997 26.5444 42.8003C29.6897 39.6584 39.6962 20.4806 40.3631 18.8134C40.48 18.5212 40.5797 18.229 40.6656 17.9403C40.6794 17.8922 40.6862 17.844 40.6931 17.7993C40.8306 17.5587 40.8478 17.2597 40.6484 16.9572Z" fill="white"/>
<path d="M24.8291 36.7641C24.7329 36.795 24.6332 36.8122 24.5197 36.8191C24.1657 36.8363 23.8116 36.4307 23.5263 36.2313C22.8354 35.7397 22.1719 35.2069 21.4707 34.7256C17.5519 32.0169 8.87567 26.5719 8.55942 26.3863C7.88223 25.9841 7.18786 25.5785 6.43848 25.4788C6.12567 25.4375 5.41411 25.52 5.36255 25.0628C5.31786 24.6125 5.84379 24.0213 6.03286 23.6397C6.39379 22.9281 6.78567 22.2372 7.1913 21.5497C8.46317 19.4047 9.84848 17.325 11.251 15.2591C12.705 13.1141 14.1935 10.9932 15.6785 8.87221C16.7029 7.41471 17.7513 5.96753 18.7241 4.47565C19.8069 2.54721 21.2919 2.44409 21.9897 2.63315C24.8807 3.42378 36.7847 11.0688 37.3897 11.3472C37.8366 11.5535 38.2491 11.8732 38.091 12.4197C37.8194 13.3582 28.5554 31.02 27.6066 32.7457C27.1322 33.6085 26.6372 34.4575 26.1216 35.2928C25.7779 35.8463 25.4685 36.5613 24.8291 36.7641Z" fill="#4682B4"/>
<path d="M41.14 16.8266C40.3357 15.596 40.4628 14.1316 40.4078 12.7119C40.6347 12.0416 40.4903 11.526 40.126 10.9038C39.3972 9.6594 24.1003 1.16878 22.0997 0.735652C21.395 0.584402 19.9375 0.0653397 18.951 1.20659C14.3997 6.48315 3.30003 23.1516 2.90128 25.6678C2.67784 27.0772 2.85315 29.04 4.46534 30.1985C4.54096 30.25 11.2235 34.8632 14.7332 37.2832C16.8717 38.7587 19.0341 40.1992 21.2197 41.6041C22.2819 42.2847 25.3378 44.6841 26.6716 43.3538C29.8994 40.1294 40.1741 20.4428 40.8547 18.7344C40.975 18.4353 41.0782 18.1328 41.1675 17.8372C41.1813 17.7857 41.1882 17.741 41.195 17.6928C41.3291 17.4419 41.3463 17.136 41.14 16.8266ZM6.7994 29.755C5.42784 28.9541 5.16315 28.1497 5.30409 27.6822C5.54128 26.8641 6.57596 26.8194 7.27378 27.1391C8.36003 27.6375 9.62503 28.5897 9.92753 28.796L24.0591 38.4382C24.0591 38.4382 24.2997 40.7963 24.2413 41.226C24.1038 41.1641 7.68284 30.2707 6.7994 29.755ZM26.1457 41.2122C25.96 40.9578 25.96 40.4697 25.9463 40.1982C25.9394 40.016 25.9532 39.8338 25.9566 39.6516C25.96 39.5038 26.1113 37.5925 25.936 37.785C25.9463 37.7713 37.8194 16.4519 38.9228 14.166C39.0122 14.6575 38.7991 16.5722 39.3216 17.3422C38.6925 19.5319 28.4041 37.8538 26.1457 41.2122Z" fill="#2F2F2F"/>
<path d="M38.9503 13.7294L25.1488 38.2559L7.96471 26.9466L5.17346 26.5066L4.29346 27.9744L5.61346 30.1778L24.8531 42.2194L26.6131 42.0716L40.6966 17.7959L38.9503 13.7294Z" fill="white"/>
<path d="M2.76027 27.0497C2.79465 27.17 2.85308 27.2731 2.9459 27.335C3.08683 27.4244 3.31027 27.3831 3.43402 27.28C3.57152 27.1666 3.69871 27.0291 3.87059 26.9603C4.06309 26.8813 4.30371 26.871 4.50652 26.8675C4.96371 26.8606 5.42434 26.9981 5.85402 27.1391C6.76152 27.4416 7.57277 27.8163 8.3634 28.356C9.08527 28.8028 9.72465 29.2738 9.92746 29.4113C10.2918 29.6588 10.9965 30.14 11.904 30.7588L22.8353 38.1838C25.7503 40.0228 26.7609 37.6131 26.7609 37.6131L38.8368 15.8916L40.4112 12.7119C40.6381 12.0416 40.6931 11.3644 40.3321 10.7456C39.6034 9.50126 23.9731 0.935013 21.9759 0.501888C21.2712 0.350638 19.8137 -0.168425 18.8271 0.972825C18.3253 1.55376 17.844 2.15189 17.3731 2.76032C16.7887 3.5097 16.2146 4.26939 15.6509 5.03595C15.0092 5.90698 14.3766 6.78474 13.7534 7.66907C13.0831 8.61782 12.4196 9.57001 11.7665 10.5256C11.0971 11.5051 10.4348 12.4894 9.77965 13.4784C9.13684 14.4444 8.50434 15.4172 7.87871 16.3934C7.29434 17.3044 6.71683 18.2188 6.15308 19.14C5.65465 19.9478 5.16309 20.7625 4.68871 21.5875C4.30715 22.2509 3.93246 22.9213 3.5784 23.5985C3.43402 23.8803 3.29309 24.1588 3.16246 24.4475C2.88059 25.0628 2.70871 25.7297 2.71902 26.4138C2.70527 26.5753 2.6984 26.8366 2.76027 27.0497" fill="#4682B4"/>
<mask id="mask0_10_99" style="mask-type:luminance" maskUnits="userSpaceOnUse" x="2" y="0" width="39" height="39">
<path d="M2.76027 27.0497C2.79465 27.17 2.85308 27.2731 2.9459 27.335C3.08683 27.4244 3.31027 27.3831 3.43402 27.28C3.57152 27.1666 3.69871 27.0291 3.87059 26.9603C4.06309 26.8813 4.30371 26.871 4.50652 26.8675C4.96371 26.8606 5.42434 26.9981 5.85402 27.1391C6.76152 27.4416 7.57277 27.8163 8.3634 28.356C9.08527 28.8028 9.72465 29.2738 9.92746 29.4113C10.2918 29.6588 10.9965 30.14 11.904 30.7588L22.8353 38.1838C25.7503 40.0228 26.7609 37.6131 26.7609 37.6131L38.8368 15.8916L40.4112 12.7119C40.6381 12.0416 40.6931 11.3644 40.3321 10.7456C39.6034 9.50126 23.9731 0.935013 21.9759 0.501888C21.2712 0.350638 19.8137 -0.168425 18.8271 0.972825C18.3253 1.55376 17.844 2.15189 17.3731 2.76032C16.7887 3.5097 16.2146 4.26939 15.6509 5.03595C15.0092 5.90698 14.3766 6.78474 13.7534 7.66907C13.0831 8.61782 12.4196 9.57001 11.7665 10.5256C11.0971 11.5051 10.4348 12.4894 9.77965 13.4784C9.13684 14.4444 8.50434 15.4172 7.87871 16.3934C7.29434 17.3044 6.71683 18.2188 6.15308 19.14C5.65465 19.9478 5.16309 20.7625 4.68871 21.5875C4.30715 22.2509 3.93246 22.9213 3.5784 23.5985C3.43402 23.8803 3.29309 24.1588 3.16246 24.4475C2.88059 25.0628 2.70871 25.7297 2.71902 26.4138C2.70527 26.5753 2.6984 26.8366 2.76027 27.0497" fill="white"/>
</mask>
<g mask="url(#mask0_10_99)">
<path d="M24.1896 0.72876L6.63428 27.8919L13.5746 33.0309L31.1333 4.04595L24.1896 0.72876Z" fill="#DCDCDC"/>
</g>
</svg>
